<?xml version="1.0" encoding="UTF-8"?>
<svg width="57px" height="50px" viewBox="0 0 57 50" version="1.1" xmlns="http://www.w3.org/2000/svg" xmlns:xlink="http://www.w3.org/1999/xlink">
    <!-- Generator: Sketch 52.2 (67145) - http://www.bohemiancoding.com/sketch -->
    <title>logo</title>
    <desc>Created with Sketch.</desc>
    <g id="logo" stroke="none" stroke-width="1" fill="none" fill-rule="evenodd">
        <g>
            <polygon id="Path" fill="#FFFFFF" fill-rule="nonzero" points="0.0218475442 -3.55271368e-15 44.0042949 -3.55271368e-15 39.988347 45.009102 22.0130712 50 4.0125769 45.009102"></polygon>
            <polygon id="Path-2" fill-opacity="0.2" fill="#2E3D50" fill-rule="nonzero" points="22.0029153 4.01161444 40.0479276 4.01161444 36.4957241 42.0047691 22.0029153 46.0230261"></polygon>
            <path d="M37.7329102,29.3569336 L43.0649414,28.8046875 C43.2172859,30.0107482 43.667965,30.9660609 44.4169922,31.6706543 C45.1660194,32.3752477 46.029292,32.7275391 47.0068359,32.7275391 C48.124029,32.7275391 49.0698203,32.2736862 49.8442383,31.3659668 C50.6186562,30.4582474 51.0058594,29.0903412 51.0058594,27.262207 C51.0058594,25.5483313 50.62183,24.2629437 49.8537598,23.4060059 C49.0856895,22.549068 48.0859437,22.1206055 46.8544922,22.1206055 C45.3183517,22.1206055 43.9409241,22.7997979 42.722168,24.1582031 L38.3803711,23.5297852 L41.1225586,9 L55.2714844,9 L55.2714844,14.0083008 L45.1787109,14.0083008 L44.3408203,18.75 C45.5341857,18.1533173 46.7529235,17.8549805 47.9970703,17.8549805 C50.3711056,17.8549805 52.3832925,18.7182531 54.0336914,20.4448242 C55.6840903,22.1713954 56.5092773,24.4120956 56.5092773,27.1669922 C56.5092773,29.4648552 55.8427801,31.5151277 54.5097656,33.3178711 C52.6943269,35.780774 50.1743325,37.012207 46.949707,37.012207 C44.3725457,37.012207 42.2714925,36.3203194 40.6464844,34.9365234 C39.0214762,33.5527275 38.0502946,31.6928828 37.7329102,29.3569336 Z" id="5" fill="#FFFFFF"></path>
            <path d="M41.4650561,28.9703899 L40.9224267,35.1612945 C40.8289693,35.0885171 40.7369885,35.0135934 40.6464844,34.9365234 C39.0214762,33.5527275 38.0502946,31.6928828 37.7329102,29.3569336 L41.4650561,28.9703899 Z M41.8973059,24.0388152 L38.3803711,23.5297852 L41.1225586,9 L43.2154499,9 L41.8973059,24.0388152 Z" id="Combined-Shape" fill="#2E3D50"></path>
            <g id="H" transform="translate(8.000000, 9.000000)" fill="#2E3D50" fill-rule="nonzero">
                <polygon id="\" points="0.184589546 2.43236583e-16 2.69724135 28.0432687 8.25241539 28.0432687 5.70575979 0"></polygon>
                <polygon id="/" transform="translate(23.733913, 14.021634) scale(-1, 1) translate(-23.733913, -14.021634) " points="19.7 2.43236583e-16 22.2126518 28.0432687 27.7678258 28.0432687 25.2211702 0"></polygon>
                <polygon id="-" points="6 11.4453821 22 11.4453821 21.4487712 16.9922494 6.54908196 17.0008087"></polygon>
            </g>
        </g>
    </g>
</svg>